<?xml version="1.0" standalone="no"?>
<!DOCTYPE svg PUBLIC "-//W3C//DTD SVG 20010904//EN"
 "http://www.w3.org/TR/2001/REC-SVG-20010904/DTD/svg10.dtd">
<svg version="1.0" xmlns="http://www.w3.org/2000/svg"
 width="512.000000pt" height="512.000000pt" viewBox="0 0 512.000000 512.000000"
 preserveAspectRatio="xMidYMid meet">
<metadata>
Created by potrace 1.14, written by Peter Selinger 2001-2017
</metadata>
<g transform="translate(0.000000,512.000000) scale(0.100000,-0.100000)"
fill="#000000" stroke="none">
<path d="M1651 4425 c-49 -16 -111 -73 -132 -120 -23 -52 -27 -122 -9 -167 11
-28 79 -126 115 -164 5 -6 24 -28 40 -49 17 -21 137 -172 268 -334 131 -163
268 -334 305 -379 88 -110 100 -121 123 -115 32 9 42 38 25 76 -8 17 -52 127
-99 242 -341 844 -371 917 -406 952 -58 60 -154 84 -230 58z"/>
<path d="M3438 4435 c-2 -1 -32 -5 -68 -8 -166 -15 -347 -89 -495 -202 -103
-79 -381 -363 -400 -409 -61 -144 47 -306 203 -308 82 0 114 21 301 205 192
188 255 232 382 261 84 20 214 14 300 -13 166 -52 309 -197 362 -366 28 -91
30 -243 3 -325 -45 -136 -62 -157 -421 -518 -207 -208 -347 -357 -357 -380
-37 -79 -13 -197 50 -254 36 -31 103 -58 149 -58 94 0 97 3 455 358 339 337
406 413 471 532 40 73 92 222 102 290 3 25 9 53 12 64 7 26 6 201 -2 256 -48
331 -235 599 -528 758 -77 42 -207 87 -292 101 -63 10 -221 21 -227 16z"/>
<path d="M662 4038 c-107 -35 -176 -173 -141 -279 15 -44 51 -92 89 -119 37
-26 1135 -343 1161 -335 20 7 32 35 24 56 -3 8 -128 98 -278 201 -150 103
-303 209 -342 235 -354 246 -360 249 -429 251 -28 0 -66 -4 -84 -10z"/>
<path d="M1719 3047 c-20 -8 -49 -23 -65 -35 -60 -43 -683 -680 -728 -744 -88
-125 -156 -300 -173 -448 -61 -512 254 -975 753 -1105 176 -46 386 -38 562 21
176 58 277 128 494 342 201 198 225 234 215 330 -4 35 -16 72 -34 101 -52 85
-177 125 -270 86 -22 -9 -104 -82 -202 -179 -182 -178 -222 -209 -326 -252
-64 -26 -81 -28 -190 -28 -118 0 -163 9 -245 47 -132 61 -248 196 -295 342
-21 63 -27 214 -13 287 28 138 72 195 439 563 203 204 336 345 348 370 24 49
23 144 -2 192 -21 40 -59 78 -97 98 -42 22 -128 28 -171 12z"/>
<path d="M2716 2204 c-11 -28 -7 -41 40 -121 26 -43 57 -96 69 -118 12 -22 55
-96 95 -165 40 -69 83 -143 96 -165 12 -22 61 -107 109 -190 48 -82 99 -170
113 -195 112 -201 210 -361 240 -392 64 -67 165 -82 256 -38 80 38 128 127
119 219 -9 86 34 37 -657 745 -188 192 -360 369 -383 393 -45 45 -86 57 -97
27z"/>
<path d="M3451 1861 c-40 -25 -4 -57 402 -359 222 -165 419 -307 437 -317 43
-22 131 -22 182 -1 61 26 113 88 127 152 15 67 8 114 -25 172 -33 57 -82 87
-190 117 -49 14 -111 32 -139 40 -27 7 -90 25 -140 39 -49 13 -130 36 -180 50
-429 120 -447 124 -474 107z"/>
</g>
</svg>
